
<svg xmlns="http://www.w3.org/2000/svg" version="1.1" xmlns:xlink="http://www.w3.org/1999/xlink" preserveAspectRatio="none" x="0px" y="0px" width="1280px" height="1280px" viewBox="0 0 1280 1280">
<defs>
<g id="Layer22_0_FILL">
<path fill="#588232" stroke="none" d="
M 16.9 590.75
Q 17.95 592.1 18.95 593.45 20.55 595.5 22.15 597.55 47.85 739.95 123.9 836.95 215.5 953.75 380.1 1004.7 492.25 1039.45 638.4 1043.55
L 638.4 824.4 563 749 638.4 655.75 638.4 412.75
Q 583.2 412.55 545.15 430.85 513.45 446.05 493.6 474.05 347 465.4 242 525 49.5 516.95 16.9 590.75 Z"/>

<path fill="#496C29" stroke="none" d="
M 786.4 474.05
Q 786.15 473.7 785.9 473.35 766.15 445.85 734.85 430.85 696.75 412.55 641.5 412.75 640.75 412.75 640 412.75 639.25 412.75 638.5 412.75 638.45 412.75 638.4 412.75
L 638.4 655.75 563 749 638.4 824.4 638.4 1043.55
Q 639.2 1043.6 640 1043.6 787.15 1039.65 899.9 1004.7 1064.5 953.75 1156.1 836.95 1232.15 739.95 1257.85 597.55 1259.45 595.5 1261.05 593.45 1262.05 592.1 1263.1 590.75 1230.5 516.95 1038 525 933 465.4 786.4 474.05 Z"/>
</g>

<g id="Layer16_0_FILL">
<path fill="#6A9C3C" stroke="none" d="
M 480.75 508.55
Q 479.7 509.25 478.75 510.25 474.8 514.2 474.25 520.2 473.65 526.35 476.75 530.85 479.5 534.9 483.7 535.95
L 480.75 508.55
M 467.75 530.6
Q 458.6 492.8 479.55 496.95
L 477.25 475.65
Q 449.1 463.15 447.8 506.25 446.35 549.4 474.5 571.6 485.45 580.15 487.1 567.15
L 485.9 556.15
Q 472.9 552.05 467.75 530.6 Z"/>

<path fill="#547C30" stroke="none" d="
M 479.55 496.95
Q 458.6 492.8 467.75 530.6 472.9 552.05 485.9 556.15
L 483.7 535.95
Q 479.5 534.9 476.75 530.85 473.65 526.35 474.25 520.2 474.8 514.2 478.75 510.25 479.7 509.25 480.75 508.55
L 479.55 496.95 Z"/>

<path fill="#588232" stroke="none" d="
M 789.5 568.45
Q 791.15 581.45 802.1 572.9 830.25 550.7 828.8 507.55 827.5 464.45 799.35 476.95
L 797.05 498.25
Q 818 494.1 808.85 531.9 803.7 553.35 790.7 557.45
L 789.5 568.45
M 795.85 509.85
L 792.9 537.25
Q 797.1 536.2 799.85 532.15 802.95 527.65 802.35 521.5 801.8 515.5 797.85 511.55 796.9 510.55 795.85 509.85 Z"/>

<path fill="#466828" stroke="none" d="
M 797.05 498.25
L 795.85 509.85
Q 796.9 510.55 797.85 511.55 801.8 515.5 802.35 521.5 802.95 527.65 799.85 532.15 797.1 536.2 792.9 537.25
L 790.7 557.45
Q 803.7 553.35 808.85 531.9 818 494.1 797.05 498.25 Z"/>
</g>

<g id="Layer15_0_FILL">
<path fill="#5F8C36" stroke="none" d="
M 480.5 539.3
Q 480.25 538.9 480 538.5 481 568.55 478.05 597.9 475.6 622.6 483.3 642.3
L 507.9 676.45 510.5 678.55
Q 511.3 679.2 512.1 679.8 505.95 628.1 513.65 573.65 495.3 564.45 480.5 539.3 Z"/>

<path fill="#6A9C3C" stroke="none" d="
M 640 389.05
Q 635.65 380.6 630.35 372.7 625.7 388.05 630.35 403.35 611.55 393.85 613.1 372.7 590.05 403.8 544.1 420.6 534.6 408.45 535.25 396.3 530.45 411 521.15 419.65 526.35 401.6 522.4 395.7 510.45 427.95 484.95 451.2 480.15 471.15 477.45 499.3 479.85 519.45 480.5 539.3 495.3 564.45 513.65 573.65 505.95 628.1 512.1 679.8 511.3 679.2 510.5 678.55 511.45 679.35 512.5 680.15 543.5 710.05 558.25 741.85 569.35 768.6 638.55 750.55 639.3 750.75 640 750.95
L 640 679.8
Q 639.6 679.8 639.15 679.8 638.55 679.8 637.9 679.8 622.8 679.65 608.25 677 622.8 679.65 637.9 679.8 638.55 679.8 639.15 679.8 639.6 679.8 640 679.8
L 640 658.15
Q 639.6 658.15 639.15 658.15 638.6 658.15 637.9 658.15 618.3 658 598.7 652.5
L 551.9 670.65 598.7 652.5
Q 618.3 658 637.9 658.15 638.6 658.15 639.15 658.15 639.6 658.15 640 658.15
L 640 640.85 640 595.1 640 581.25
Q 639.3 581.25 638.65 581.3 637.25 581.25 635.9 581.1 624.25 579.65 615.7 568.5 624.25 579.65 635.9 581.1 637.25 581.25 638.65 581.3 639.3 581.25 640 581.25
L 640 389.05
M 595.45 553.6
Q 527.8 576.6 524.2 650.4 527.8 576.6 595.45 553.6 Z"/>

<path fill="#4D722C" stroke="none" d="
M 796.65 538.85
Q 781.65 564.65 763 574 770.7 628.45 764.55 680.15 803.75 650.3 798.6 598.25 795.65 568.9 796.65 538.85 Z"/>

<path fill="#588232" stroke="none" d="
M 796.65 538.85
Q 797.3 519.2 799.6 499.3 793.25 431.55 774.15 411.05 781.45 396.7 776.9 379.4 755.2 382.4 742.45 406.2 726.85 390.5 729 368.85 706.85 381.25 702.2 399.5 690.95 398.3 685.9 378.45 687.45 411.9 655.25 433.05 650.55 409.55 640 389.05
L 640 581.25
Q 640.6 581.15 641.2 581.1 652.8 579.65 661.4 568.5 652.8 579.65 641.2 581.1 640.6 581.15 640 581.25
L 640 595.1 640 640.85 640 658.15
Q 659.2 657.9 678.4 652.5
L 725.25 670.65 678.4 652.5
Q 659.2 657.9 640 658.15
L 640 679.8
Q 654.65 679.6 668.85 677 654.65 679.6 640 679.8
L 640 750.95
Q 707.8 768.3 718.8 741.85 733.55 710.05 764.55 680.15 770.7 628.45 763 574 781.65 564.65 796.65 538.85
M 681.6 553.6
Q 749.35 576.6 752.85 650.4 749.35 576.6 681.6 553.6 Z"/>

<path fill="#0C1F09" stroke="none" d="
M 687.85 261.55
L 694 278
Q 641.3 256.1 581.5 255.8 586.1 266.35 597.7 273.8 566 268 530.7 273.05 540.9 278.35 552.9 278.35 521.25 280.65 516.35 284.55
L 530.7 290.3
Q 510.3 289.9 488.55 296.05
L 520.15 304.65
Q 491.75 299.15 460.8 311.4
L 480.9 317.1
Q 466.1 320.6 457.9 333.4
L 475.65 485.1
Q 476.05 488 476.35 490.8 476.9 495.05 477.45 499.3 480.15 471.15 484.95 451.2 510.45 427.95 522.4 395.7 526.35 401.6 521.15 419.65 530.45 411 535.25 396.3 534.6 408.45 544.1 420.6 590.05 403.8 613.1 372.7 611.55 393.85 630.35 403.35 625.7 388.05 630.35 372.7 635.65 380.6 640 389.05 650.55 409.55 655.25 433.05 687.45 411.9 685.9 378.45 690.95 398.3 702.2 399.5 706.85 381.25 729 368.85 726.85 390.5 742.45 406.2 755.2 382.4 776.9 379.4 781.45 396.7 774.15 411.05 793.25 431.55 799.6 499.3 800.15 495.05 800.75 490.8
L 807.6 330.55 780.75 284.55 782.65 305.65 768.3 291.85 772.15 309.45
Q 755.75 294.5 736.6 283.2 714.1 269.9 687.85 261.55 Z"/>
</g>

<g id="Layer14_0_FILL">
<path fill="#6A9C3C" stroke="none" d="
M 563.95 510.8
Q 562.4 513.3 562.4 516.55 562.4 521.1 565.55 524.1 568.75 527.35 573.2 527.35 577.65 527.35 580.85 524.1 584.05 521.1 584.05 516.55 584.05 516.45 584.05 516.3 583.35 516.05 582.75 515.85 581.25 515.45 579.95 515.15 567.6 511.7 566.6 511.45 565.4 511.05 563.95 510.8
M 711.75 516.3
Q 711.65 513.3 710.2 510.95 709.2 511.15 708.2 511.45 707.25 511.7 694.8 515.15 693.55 515.45 692.15 515.85 691.2 516.2 690.1 516.5
L 690.1 516.55
Q 690.1 521.1 693.25 524.1 696.4 527.35 700.95 527.35 705.4 527.35 708.5 524.1 711.75 521.1 711.75 516.55 711.75 516.45 711.75 516.3 Z"/>

<path fill="#FFFFFF" stroke="none" d="
M 562.4 516.55
Q 562.4 513.3 563.95 510.8 561.6 510.25 559.2 509.75
L 532.4 506.55 538.85 521.2
Q 558 545.8 595.15 529.9
L 595.2 529.85
Q 595.45 529.6 595.75 529.4 599.8 526.15 600.6 525.1 601.25 524.35 601.6 524 601.65 523.85 601.8 523.8 601.8 523.75 601.85 523.7 601.9 523.65 602.05 523.55 602.3 523.45 602.4 523.25 600 522.25 597.45 521.35 596.45 520.75 595.4 520.15 594.15 519.65 592.85 519.2 588.5 517.65 584.05 516.3 584.05 516.45 584.05 516.55 584.05 521.1 580.85 524.1 577.65 527.35 573.2 527.35 568.75 527.35 565.55 524.1 562.4 521.1 562.4 516.55
M 715.65 509.75
Q 712.9 510.3 710.2 510.95 711.65 513.3 711.75 516.3 711.75 516.45 711.75 516.55 711.75 521.1 708.5 524.1 705.4 527.35 700.95 527.35 696.4 527.35 693.25 524.1 690.1 521.1 690.1 516.55
L 690.1 516.5
Q 686.05 517.85 682.05 519.2 680.75 519.65 679.5 520.15 678.45 520.75 677.45 521.35 674.9 522.25 672.4 523.25 672.65 523.45 672.85 523.55 672.95 523.65 673 523.7 673.05 523.75 673.05 523.8 673.15 523.85 673.25 524 673.6 524.35 674.15 525.1 675.1 526.15 679 529.4 679.35 529.6 679.65 529.85
L 679.75 529.9
Q 716.8 545.8 735.95 521.2
L 742.45 506.55 715.65 509.75 Z"/>
</g>

<path id="Layer19_0_1_STROKES" stroke="#000000" stroke-opacity="0.09803921568627451" stroke-width="8" stroke-linejoin="round" stroke-linecap="round" fill="none" d="
M 771.5 622.6
Q 835 643.3 891.95 636.6
M 1070 707
Q 1105.95 756.15 1160 763
M 214 707
Q 178.05 756.15 124 763
M 512.5 622.6
Q 449 643.3 392 636.6
M 640 872.8
L 640 874.25
Q 640.1 874.35 640.2 874.5 710.6 773.15 927 741.6
M 640 874.25
L 640 874.8
Q 640.1 874.65 640.2 874.5 640.3 874.65 640.4 874.8
M 640 1040.8
L 640 1003 640 957
Q 612.2 930.55 578 936
M 640 874.8
L 640 957
M 353.4 741.6
Q 569.5 773.1 640 874.25
M 640 1003
Q 673 974.5 706 978"/>

<path id="Layer15_0_1_STROKES" stroke="#000000" stroke-opacity="0.09803921568627451" stroke-width="8" stroke-linejoin="round" stroke-linecap="round" fill="none" d="
M 725.25 670.65
L 678.4 652.5
Q 659.2 657.9 640 658.15
M 640 679.8
Q 654.65 679.6 668.85 677
M 681.6 553.6
Q 749.35 576.6 752.85 650.4
M 661.4 568.5
Q 652.8 579.65 641.2 581.1 640.6 581.15 640 581.25
M 640 640.85
L 640 595.1
M 640 658.15
Q 639.6 658.15 639.15 658.15 638.6 658.15 637.9 658.15 618.3 658 598.7 652.5
L 551.9 670.65
M 640 581.25
Q 639.3 581.25 638.65 581.3 637.25 581.25 635.9 581.1 624.25 579.65 615.7 568.5
M 640 679.8
Q 639.6 679.8 639.15 679.8 638.55 679.8 637.9 679.8 622.8 679.65 608.25 677
M 595.45 553.6
Q 527.8 576.6 524.2 650.4"/>

<path id="Layer13_0_1_STROKES" stroke="#000000" stroke-opacity="0.2" stroke-width="8" stroke-linejoin="round" stroke-linecap="round" fill="none" d="
M 746.4 496
L 770 503
M 527.5 496
L 503.9 503"/>

<path id="Layer13_0_2_STROKES" stroke="#000000" stroke-width="12.7" stroke-linejoin="round" stroke-linecap="round" fill="none" d="
M 664.2 515.6
L 693.3 514.1
Q 721.3 496.85 756.8 488.6
M 609.7 515.6
L 580.6 514.1
Q 551.95 495.9 517.1 488.6"/>
</defs>

<g transform="matrix( 1, 0, 0, 1, 0,0) ">
<use xlink:href="#Layer22_0_FILL"/>
</g>

<g transform="matrix( 1, 0, 0, 1, 0,0) ">
<use xlink:href="#Layer19_0_1_STROKES"/>
</g>

<g transform="matrix( 1, 0, 0, 1, 0,0) ">
<use xlink:href="#Layer16_0_FILL"/>
</g>

<g transform="matrix( 1, 0, 0, 1, 0,0) ">
<use xlink:href="#Layer15_0_FILL"/>

<use xlink:href="#Layer15_0_1_STROKES"/>
</g>

<g transform="matrix( 1, 0, 0, 1, 0,0) ">
<use xlink:href="#Layer14_0_FILL"/>
</g>

<g transform="matrix( 1, 0, 0, 1, 0,0) ">
<use xlink:href="#Layer13_0_1_STROKES"/>

<use xlink:href="#Layer13_0_2_STROKES"/>
</g>
</svg>
