
<svg xmlns="http://www.w3.org/2000/svg" version="1.1" xmlns:xlink="http://www.w3.org/1999/xlink" preserveAspectRatio="none" x="0px" y="0px" width="1280px" height="1024px" viewBox="0 0 1280 1024">
<defs>
<g id="Layer22_0_FILL">
<path fill="#588232" stroke="none" d="
M 638.4 356.75
Q 583.215625 356.56640625 545.15 374.85 513.45 390.05 493.6 418.05 347 409.4 242 469 49.5 460.95 16.9 534.75 17.95 536.1 18.95 537.45 20.55 539.5 22.15 541.55 47.85 683.95 123.9 780.95 215.5 897.75 380.1 948.7 492.2357421875 983.4595703125 638.4 987.55
L 638.4 768.4 563 693 638.4 599.75 638.4 356.75 Z"/>

<path fill="#496C29" stroke="none" d="
M 786.4 418.05
Q 786.1515625 417.699609375 785.9 417.35 766.1533203125 389.859765625 734.85 374.85 696.75 356.55 641.5 356.75 640.75 356.75 640 356.75 639.25 356.75 638.5 356.75 638.4501953125 356.7498046875 638.4 356.75
L 638.4 599.75 563 693 638.4 768.4 638.4 987.55
Q 639.1984375 987.578515625 640 987.6 787.15 983.65 899.9 948.7 1064.5 897.75 1156.1 780.95 1232.15 683.95 1257.85 541.55 1259.45 539.5 1261.05 537.45 1262.05 536.1 1263.1 534.75 1230.5 460.95 1038 469 933 409.4 786.4 418.05 Z"/>
</g>

<g id="Layer16_0_FILL">
<path fill="#6A9C3C" stroke="none" d="
M 480.75 452.55
Q 479.7 453.25 478.75 454.25 474.8 458.2 474.25 464.2 473.65 470.35 476.75 474.85 479.5 478.9 483.7 479.95
L 480.75 452.55
M 479.55 440.95
L 477.25 419.65
Q 449.1 407.15 447.8 450.25 446.35 493.4 474.5 515.6 485.45 524.15 487.1 511.15
L 485.9 500.15
Q 472.9 496.05 467.75 474.6 458.6 436.8 479.55 440.95 Z"/>

<path fill="#547C30" stroke="none" d="
M 478.75 454.25
Q 479.7 453.25 480.75 452.55
L 479.55 440.95
Q 458.6 436.8 467.75 474.6 472.9 496.05 485.9 500.15
L 483.7 479.95
Q 479.5 478.9 476.75 474.85 473.65 470.35 474.25 464.2 474.8 458.2 478.75 454.25 Z"/>

<path fill="#466828" stroke="none" d="
M 795.85 453.85
Q 796.9 454.55 797.85 455.55 801.8 459.5 802.35 465.5 802.95 471.65 799.85 476.15 797.1 480.2 792.9 481.25
L 790.7 501.45
Q 803.7 497.35 808.85 475.9 818 438.1 797.05 442.25
L 795.85 453.85 Z"/>

<path fill="#588232" stroke="none" d="
M 795.85 453.85
L 792.9 481.25
Q 797.1 480.2 799.85 476.15 802.95 471.65 802.35 465.5 801.8 459.5 797.85 455.55 796.9 454.55 795.85 453.85
M 799.35 420.95
L 797.05 442.25
Q 818 438.1 808.85 475.9 803.7 497.35 790.7 501.45
L 789.5 512.45
Q 791.15 525.45 802.1 516.9 830.25 494.7 828.8 451.55 827.5 408.45 799.35 420.95 Z"/>
</g>

<g id="Layer15_0_FILL">
<path fill="#5F8C36" stroke="none" d="
M 480.45 483.3
Q 480.231640625 482.8984375 480 482.5 481 512.55 478.05 541.9 475.6041015625 566.620703125 483.3 586.25
L 507.9 620.4 510.45 622.55
Q 511.2849609375 623.179296875 512.1 623.8 505.95 572.1 513.65 517.65 495.2880859375 508.4443359375 480.45 483.3 Z"/>

<path fill="#6A9C3C" stroke="none" d="
M 544.1 364.6
Q 534.6 352.45 535.25 340.3 530.45 355 521.15 363.65 526.35 345.6 522.4 339.7 510.45 371.95 484.95 395.2 480.15 415.15 477.45 443.3 479.8267578125 463.451953125 480.45 483.3 495.2880859375 508.4443359375 513.65 517.65 505.95 572.1 512.1 623.8 511.2849609375 623.179296875 510.45 622.55 511.472265625 623.3654296875 512.5 624.15 543.5 654.05 558.25 685.85 569.35 712.6 638.55 694.55 639.278125 694.7400390625 640 694.9
L 640 623.8
Q 639.575390625 623.795703125 639.15 623.8 638.55 623.8 637.9 623.8 622.8 623.65 608.25 621 622.8 623.65 637.9 623.8 638.55 623.8 639.15 623.8 639.575390625 623.795703125 640 623.8
L 640 602.15
Q 639.5751953125 602.1466796875 639.15 602.15 638.6 602.15 637.9 602.15 618.3 602 598.7 596.5
L 551.9 614.65 598.7 596.5
Q 618.3 602 637.9 602.15 638.6 602.15 639.15 602.15 639.5751953125 602.1466796875 640 602.15
L 640 584.85 640 539.1 640 525.2
Q 639.3177734375 525.2732421875 638.65 525.3 637.25 525.25 635.9 525.1 624.25 523.65 615.7 512.5 624.25 523.65 635.9 525.1 637.25 525.25 638.65 525.3 639.3177734375 525.2732421875 640 525.2
L 640 333
Q 635.66953125 324.62109375 630.35 316.7 625.7 332.05 630.35 347.35 611.55 337.85 613.1 316.7 590.05 347.8 544.1 364.6
M 595.45 497.6
Q 527.8 520.6 524.2 594.4 527.8 520.6 595.45 497.6 Z"/>

<path fill="#4D722C" stroke="none" d="
M 796.65 482.8
Q 781.6390625 508.643359375 763 518 770.69921875 572.459765625 764.55 624.15 803.75 594.3 798.6 542.25 795.6650390625 512.900390625 796.65 482.8 Z"/>

<path fill="#588232" stroke="none" d="
M 702.2 343.5
Q 690.95 342.3 685.9 322.45 687.45 355.9 655.25 377.05 650.5685546875 353.571484375 640 333
L 640 525.2
Q 640.59453125 525.169921875 641.2 525.1 652.8 523.65 661.4 512.5 652.8 523.65 641.2 525.1 640.59453125 525.169921875 640 525.2
L 640 539.1 640 584.85 640 602.15
Q 659.2240234375 601.8810546875 678.4 596.5
L 725.25 614.65 678.4 596.5
Q 659.2240234375 601.8810546875 640 602.15
L 640 623.8
Q 654.661328125 623.575390625 668.85 621 654.661328125 623.575390625 640 623.8
L 640 694.9
Q 707.816796875 712.318359375 718.8 685.85 733.55 654.05 764.55 624.15 770.69921875 572.459765625 763 518 781.6390625 508.643359375 796.65 482.8 797.2900390625 463.2203125 799.6 443.3 793.25 375.55 774.15 355.05 781.45 340.7 776.9 323.4 755.2 326.4 742.45 350.2 726.85 334.5 729 312.85 706.85 325.25 702.2 343.5
M 681.6 497.6
Q 749.35 520.6 752.85 594.4 749.35 520.6 681.6 497.6 Z"/>

<path fill="#0C1F09" stroke="none" d="
M 807.6 274.55
L 780.75 228.55 782.65 249.65 768.3 235.85 772.15 253.45
Q 755.727734375 238.520703125 736.6 227.2 714.0978515625 213.87578125 687.85 205.55
L 694 222
Q 641.3 200.1 581.5 199.8 586.1 210.35 597.7 217.8 566 212 530.7 217.05 540.9 222.35 552.9 222.35 521.25 224.65 516.35 228.55
L 530.7 234.3
Q 510.3 233.9 488.55 240.05
L 520.15 248.65
Q 491.75 243.15 460.8 255.4
L 480.9 261.1
Q 466.1 264.6 457.9 277.4
L 475.65 429.1
Q 476.05 432 476.35 434.8 476.9 439.05 477.45 443.3 480.15 415.15 484.95 395.2 510.45 371.95 522.4 339.7 526.35 345.6 521.15 363.65 530.45 355 535.25 340.3 534.6 352.45 544.1 364.6 590.05 347.8 613.1 316.7 611.55 337.85 630.35 347.35 625.7 332.05 630.35 316.7 635.66953125 324.62109375 640 333 650.5685546875 353.571484375 655.25 377.05 687.45 355.9 685.9 322.45 690.95 342.3 702.2 343.5 706.85 325.25 729 312.85 726.85 334.5 742.45 350.2 755.2 326.4 776.9 323.4 781.45 340.7 774.15 355.05 793.25 375.55 799.6 443.3 800.15 439.05 800.75 434.8
L 807.6 274.55 Z"/>
</g>

<g id="Layer14_0_FILL">
<path fill="#6A9C3C" stroke="none" d="
M 580.85 468.1
Q 584.05 465.1 584.05 460.55 584.05 460.45 584.05 460.3 583.35 460.05 582.75 459.85 581.25 459.45 579.95 459.15 567.6 455.7 566.6 455.45 565.4 455.05 563.95 454.8 562.4 457.3 562.4 460.55 562.4 465.1 565.55 468.1 568.75 471.35 573.2 471.35 577.65 471.35 580.85 468.1
M 711.75 460.3
Q 711.65 457.3 710.2 454.95 709.2 455.15 708.2 455.45 707.25 455.7 694.8 459.15 693.55 459.45 692.15 459.85 691.2 460.2 690.1 460.5
L 690.1 460.55
Q 690.1 465.1 693.25 468.1 696.4 471.35 700.95 471.35 705.4 471.35 708.5 468.1 711.75 465.1 711.75 460.55 711.75 460.45 711.75 460.3 Z"/>

<path fill="#FFFFFF" stroke="none" d="
M 595.4 464.15
Q 594.15 463.65 592.85 463.2 588.5 461.65 584.05 460.3 584.05 460.45 584.05 460.55 584.05 465.1 580.85 468.1 577.65 471.35 573.2 471.35 568.75 471.35 565.55 468.1 562.4 465.1 562.4 460.55 562.4 457.3 563.95 454.8 561.6 454.25 559.2 453.75
L 532.4 450.55 538.85 465.2
Q 558 489.8 595.15 473.9
L 595.2 473.85
Q 595.45 473.6 595.75 473.4 599.8 470.15 600.6 469.1 601.25 468.35 601.6 468 601.65 467.85 601.8 467.8 601.8 467.75 601.85 467.7 601.9 467.65 602.05 467.55 602.3 467.45 602.4 467.25 600 466.25 597.45 465.35 596.45 464.75 595.4 464.15
M 735.95 465.2
L 742.45 450.55 715.65 453.75
Q 712.9 454.3 710.2 454.95 711.65 457.3 711.75 460.3 711.75 460.45 711.75 460.55 711.75 465.1 708.5 468.1 705.4 471.35 700.95 471.35 696.4 471.35 693.25 468.1 690.1 465.1 690.1 460.55
L 690.1 460.5
Q 686.05 461.85 682.05 463.2 680.75 463.65 679.5 464.15 678.45 464.75 677.45 465.35 674.9 466.25 672.4 467.25 672.65 467.45 672.85 467.55 672.95 467.65 673 467.7 673.05 467.75 673.05 467.8 673.15 467.85 673.25 468 673.6 468.35 674.15 469.1 675.1 470.15 679 473.4 679.35 473.6 679.65 473.85
L 679.75 473.9
Q 716.8 489.8 735.95 465.2 Z"/>
</g>

<path id="Layer19_0_1_STROKES" stroke="#000000" stroke-opacity="0.09803921568627451" stroke-width="8" stroke-linejoin="round" stroke-linecap="round" fill="none" d="
M 771.5 566.6
Q 835 587.3 891.95 580.6
M 1070 651
Q 1105.9390625 700.1423828125 1160 707
M 214 651
Q 178.05 700.15 124 707
M 512.5 566.6
Q 449 587.3 392 580.6
M 640 816.8
L 640 818.225
Q 640.1 818.3681640625 640.2 818.5 710.607421875 717.155078125 927 685.6
M 640 818.225
L 640 818.8
Q 640.0998046875 818.655859375 640.2 818.5 640.3 818.6556640625 640.4 818.8
M 706 922
Q 673 918.506640625 640 947
L 640 984.8
M 640 818.8
L 640 901 640 947
M 640 901
Q 612.188671875 874.5572265625 578 880
M 353.4 685.6
Q 569.4849609375 717.1103515625 640 818.225"/>

<path id="Layer15_0_1_STROKES" stroke="#000000" stroke-opacity="0.09803921568627451" stroke-width="8" stroke-linejoin="round" stroke-linecap="round" fill="none" d="
M 725.25 614.65
L 678.4 596.5
Q 659.2240234375 601.8810546875 640 602.15
M 640 623.8
Q 654.661328125 623.575390625 668.85 621
M 681.6 497.6
Q 749.35 520.6 752.85 594.4
M 661.4 512.5
Q 652.8 523.65 641.2 525.1 640.59453125 525.169921875 640 525.225
M 640 584.85
L 640 539.1
M 640 602.15
Q 639.5751953125 602.1466796875 639.15 602.15 638.6 602.15 637.9 602.15 618.3 602 598.7 596.5
L 551.9 614.65
M 640 525.225
Q 639.3177734375 525.2732421875 638.65 525.3 637.25 525.25 635.9 525.1 624.25 523.65 615.7 512.5
M 640 623.8
Q 639.575390625 623.795703125 639.15 623.8 638.55 623.8 637.9 623.8 622.8 623.65 608.25 621
M 595.45 497.6
Q 527.8 520.6 524.2 594.4"/>

<path id="Layer13_0_1_STROKES" stroke="#000000" stroke-opacity="0.2" stroke-width="8" stroke-linejoin="round" stroke-linecap="round" fill="none" d="
M 746.4 440
L 770 447
M 527.5 440
L 503.9 447"/>

<path id="Layer13_0_2_STROKES" stroke="#000000" stroke-width="12.7" stroke-linejoin="round" stroke-linecap="round" fill="none" d="
M 664.2 459.6
L 693.3 458.1
Q 721.3 440.85 756.8 432.6
M 609.7 459.6
L 580.6 458.1
Q 551.95 439.9 517.1 432.6"/>
</defs>

<g transform="matrix( 1, 0, 0, 1, 0,0) ">
<use xlink:href="#Layer22_0_FILL"/>
</g>

<g transform="matrix( 1, 0, 0, 1, 0,0) ">
<use xlink:href="#Layer19_0_1_STROKES"/>
</g>

<g transform="matrix( 1, 0, 0, 1, 0,0) ">
<use xlink:href="#Layer16_0_FILL"/>
</g>

<g transform="matrix( 1, 0, 0, 1, 0,0) ">
<use xlink:href="#Layer15_0_FILL"/>

<use xlink:href="#Layer15_0_1_STROKES"/>
</g>

<g transform="matrix( 1, 0, 0, 1, 0,0) ">
<use xlink:href="#Layer14_0_FILL"/>
</g>

<g transform="matrix( 1, 0, 0, 1, 0,0) ">
<use xlink:href="#Layer13_0_1_STROKES"/>

<use xlink:href="#Layer13_0_2_STROKES"/>
</g>
</svg>
