
<svg xmlns="http://www.w3.org/2000/svg" version="1.1" xmlns:xlink="http://www.w3.org/1999/xlink" preserveAspectRatio="none" x="0px" y="0px" width="1060px" height="1060px" viewBox="0 0 1060 1060">
<defs>
<g id="Layer10_0_FILL">
<path fill="#CCCCCC" stroke="none" d="
M 531 906.25
L 531.75 906.3
Q 531.9 906.3 532 906.3 532.7 906.3 533.35 906.3
L 533.35 905.95 743.05 884.15
Q 798.85 845.35 841.1 793.15 734.9 805.05 632.2 802.95 586.25 760.65 531 721.6
L 531 906.25 Z"/>

<path fill="#FFFFFF" stroke="none" d="
M 531 721.6
Q 529.9 720.75 528.8 720 472.9 759.45 426.5 802.15 323.75 804.2 217.55 792.3 260.1 844.9 316.35 883.8
L 528.85 905.95 528.85 906.3
Q 529.55 906.3 530.2 906.3 530.35 906.3 530.45 906.3
L 531 906.25 531 721.6 Z"/>

<path fill="#25608F" stroke="none" d="
M 59.3 659.85
Q 24.5 694.85 9.4 783.6 59.75 806.6 109.95 825.35 119.25 828.75 128.5 832.05 184.05 851.9 239.2 866.4 277.75 876.6 316.35 883.8 260.1 844.9 217.55 792.3 323.75 804.2 426.5 802.15 472.9 759.45 528.8 720 529.9 720.75 531 721.6
L 531 604.2 464.55 537.75 635.45 422.9 633.9 410.1 635.2 410.1 634.3 403.25 530.2 404.15 427.9 403.25 427.05 410.1 428.25 410.1 414.15 528.45
Q 301.25 530.35 171.4 616.15 98.15 620.7 59.3 659.85 Z"/>

<path fill="#194060" stroke="none" d="
M 890.8 616.15
Q 760.95 530.35 648.05 528.45
L 635.45 422.9 464.55 537.75 531 604.2 531 721.6
Q 586.25 760.65 632.2 802.95 734.9 805.05 841.1 793.15 798.85 845.35 743.05 884.15
L 745.85 883.8
Q 784.45 876.6 823 866.4 878.15 851.9 933.65 832.05 942.95 828.75 952.25 825.35 962.35 821.6 972.45 817.65 1012.6 801.95 1052.8 783.6 1037.7 694.85 1002.95 659.85 989.7 646.5 972.45 637.2 939.1 619.15 890.8 616.15 Z"/>
</g>

<g id="Layer8_0_FILL">
<path fill="#000000" fill-opacity="0.2" stroke="none" d="
M 474.1 580.1
Q 473.8 578.25 472.25 577.15 470.8 576.05 468.95 576.35 467.05 576.7 466 578.25 464.95 579.65 465.25 581.6 476.25 646.6 514.65 693.35 515.85 694.8 517.7 695 519.55 695.2 521 694 522.35 692.8 522.65 690.95 522.8 689.05 521.6 687.65 484.75 642.6 474.1 580.1
M 597.55 581.6
Q 597.9 579.65 596.75 578.25 595.7 576.7 593.9 576.35 592.1 576.05 590.55 577.15 589.05 578.25 588.7 580.1 578.1 642.6 541.2 687.65 540.05 689.05 540.2 690.95 540.45 692.8 541.9 694 543.25 695.2 545.2 695 547 694.8 548.25 693.35 586.5 646.6 597.55 581.6
M 272.7 635
Q 272.55 636.8 273.8 638.3 275 639.7 276.8 639.9 348.3 646.85 433.3 679.8 435 680.4 436.7 679.7 438.4 678.9 439.1 677.2 439.8 675.4 439 673.75 438.25 672.1 436.6 671.45 350.2 637.9 277.65 630.9 275.8 630.7 274.35 631.95 272.95 633.2 272.7 635
M 790 642
Q 791.25 640.55 791.1 638.75 790.85 636.85 789.4 635.7 788 634.5 786.2 634.65 713.6 641.6 627.3 675.15 625.45 675.75 624.85 677.45 624.1 679.2 624.75 680.95 625.4 682.65 627.1 683.4 628.8 684.15 630.55 683.5 715.5 650.55 787.05 643.65 788.85 643.45 790 642 Z"/>
</g>

<g id="Layer6_0_FILL">
<path fill="#CCCCCC" stroke="none" d="
M 380.05 256.85
Q 385.3 268.1 393.4 273.55 388.65 272.95 382.6 276.75 390 285.95 402.7 284.3
L 412.9 311.65 418.5 306.35
Q 409.55 285.7 409.9 251.85 402.7 235.85 388.8 225.65 387.55 245.7 396.6 260.5 391.45 253.25 380.05 256.85 Z"/>

<path fill="#B2B2B2" stroke="none" d="
M 658.5 284.2
Q 671.25 285.9 678.7 276.7 672.65 272.95 667.85 273.5 675.9 268.05 681.15 256.8 669.75 253.2 664.6 260.5 673.65 245.65 672.45 225.65 658.5 235.8 651.25 251.8 651.65 285.65 642.75 306.3
L 648.25 311.65 658.5 284.2 Z"/>
</g>

<g id="Layer5_0_FILL">
<path fill="#C77C66" stroke="none" d="
M 409.75 374.4
Q 407.3 369.45 407.8 363.45 408.45 357.7 411.75 354.55 412.55 353.85 413.5 353.4
L 412.6 341.9
Q 395.15 333.9 402.35 372.65 406.3 394.3 417.05 400.65
L 415.5 380.6
Q 411.95 378.9 409.75 374.4
M 653.8 363.25
Q 654.3 369.2 651.8 374.15 649.65 378.7 646.1 380.35
L 644.55 400.45
Q 655.35 394.1 659.25 372.4 666.45 333.7 649 341.65
L 648.1 353.15
Q 649.1 353.6 649.9 354.35 653.15 357.5 653.8 363.25 Z"/>

<path fill="#F2C2A9" stroke="none" d="
M 415.5 380.6
L 413.5 353.4
Q 412.55 353.85 411.75 354.55 408.45 357.7 407.8 363.45 407.3 369.45 409.75 374.4 411.95 378.9 415.5 380.6
M 412.6 341.9
L 411.05 320.55
Q 387.7 303.3 385.9 345.15 384.15 387.1 407.35 413.8 416.35 424.15 417.9 411.7
L 417.05 400.65
Q 406.3 394.3 402.35 372.65 395.15 333.9 412.6 341.9 Z"/>

<path fill="#E8A994" stroke="none" d="
M 651.8 374.15
Q 654.3 369.2 653.8 363.25 653.15 357.5 649.9 354.35 649.1 353.6 648.1 353.15
L 646.1 380.35
Q 649.65 378.7 651.8 374.15
M 675.7 344.95
Q 673.95 303.05 650.65 320.3
L 649 341.65
Q 666.45 333.7 659.25 372.4 655.35 394.1 644.55 400.45
L 643.7 411.45
Q 645.35 423.95 654.25 413.55 677.5 386.9 675.7 344.95 Z"/>
</g>

<g id="Layer4_0_FILL">
<path fill="#E8A994" stroke="none" d="
M 531.2 559.25
L 546.9 559.25
Q 547.45 559.2 548 559.1 555.6 558.15 563.2 556.55 567.4 555.45 571.25 554 584.45 549.25 593.65 540.85 596.25 538.7 598.6 536.5 603.2 532.3 607.6 527.9 610.2 525.2 612.75 522.5
L 612.75 522.45
Q 618.15 478.95 608.2 435.35 579.85 401.35 531.2 387.55
L 531.2 559.25 Z"/>

<path fill="#F2C2A9" stroke="none" d="
M 531 387.5
Q 530.4 387.7 529.9 387.85 481.85 401.65 453.7 435.35 443.8 478.95 449.2 522.45
L 449.2 522.5
Q 451.7 525.2 454.35 527.9 458.7 532.3 463.35 536.5 465.7 538.7 468.3 540.85 477.5 549.25 490.65 554 494.5 555.45 498.7 556.55 506.35 558.15 513.85 559.1 514.5 559.2 515 559.25
L 531.2 559.25 531.2 387.55
Q 531.1 387.55 531 387.5 Z"/>

<path fill="#33618F" stroke="none" d="
M 507.55 243.5
Q 507.1 245 506.75 246.55 504.65 255.1 502.8 263.85
L 529.9 263.85 529.9 243.5 507.55 243.5
M 484.2 334.5
Q 462.45 331.6 440.45 326.05
L 476.95 213
Q 503.95 205.55 529.9 206.05
L 529.9 177.1
Q 397.05 172.95 412.6 362.15
L 423.85 469.85
Q 426.85 494.85 433.55 503.6 440.8 513.45 449.2 522.45 443.8 478.95 453.7 435.35 481.85 401.65 529.9 387.85
L 529.9 294.3 497.2 294.3
Q 496.9 295.85 496.65 297.3 493.8 316.35 492.2 335.5 488.2 335 484.2 334.5 Z"/>

<path fill="#204060" stroke="none" d="
M 552.2 243.5
L 529.9 243.5 529.9 263.85 556.9 263.85
Q 555.1 255.1 553 246.55 552.6 245 552.2 243.5
M 531 177.15
Q 530.4 177.1 529.9 177.1
L 529.9 206.05
Q 555.75 205.55 582.8 213
L 619.25 326.05
Q 597.3 331.6 575.5 334.5 571.55 335 567.6 335.5 565.95 316.35 563.05 297.3 562.85 295.85 562.6 294.3
L 529.9 294.3 529.9 387.85
Q 530.4 387.7 531 387.5 531.1 387.55 531.2 387.55 579.85 401.35 608.2 435.35 618.15 478.95 612.75 522.45 621.15 513.45 628.4 503.6 635.1 494.85 638 469.85
L 649.3 362.15
Q 664.95 172.15 531 177.15 Z"/>

<path fill="#CCCCCC" stroke="none" d="
M 529.9 243.5
L 552.2 243.5
Q 552.6 245 553 246.55 555.1 255.1 556.9 263.85
L 529.9 263.85 529.9 294.3 562.6 294.3
Q 562.85 295.85 563.05 297.3 565.95 316.35 567.6 335.5 571.55 335 575.5 334.5 597.3 331.6 619.25 326.05
L 582.8 213
Q 555.75 205.55 529.9 206.05
L 529.9 243.5 Z"/>

<path fill="#FFFFFF" stroke="none" d="
M 440.45 326.05
Q 462.45 331.6 484.2 334.5 488.2 335 492.2 335.5 493.8 316.35 496.65 297.3 496.9 295.85 497.2 294.3
L 529.9 294.3 529.9 263.85 502.8 263.85
Q 504.65 255.1 506.75 246.55 507.1 245 507.55 243.5
L 529.9 243.5 529.9 206.05
Q 503.95 205.55 476.95 213
L 440.45 326.05 Z"/>
</g>

<g id="Layer1_0_FILL">
<path fill="#5A99FF" stroke="none" d="
M 589.05 364.75
Q 588.95 361.95 587.6 359.8 586.65 360.05 585.75 360.3 584.9 360.5 573.4 363.65 572.25 363.9 570.9 364.4 570.05 364.65 569.05 364.9
L 569.05 364.95
Q 569.05 369.2 571.95 372 574.9 375 579.1 375 583.2 375 586.1 372 589.05 369.2 589.05 364.95 589.05 364.85 589.05 364.75 Z"/>

<path fill="#FFFFFF" stroke="none" d="
M 559.2 368.35
Q 558.2 368.9 557.3 369.45 554.95 370.3 552.65 371.15 552.9 371.35 553.05 371.5 553.15 371.55 553.25 371.6 553.3 371.65 553.3 371.7 553.4 371.75 553.45 371.9 553.75 372.2 554.35 372.9 555.1 373.9 558.75 376.9 559.1 377.05 559.4 377.25
L 559.45 377.3
Q 593.75 392.1 611.4 369.3
L 617.4 355.75 592.65 358.65
Q 590.15 359.2 587.6 359.8 588.95 361.95 589.05 364.75 589.05 364.85 589.05 364.95 589.05 369.2 586.1 372 583.2 375 579.1 375 574.9 375 571.95 372 569.05 369.2 569.05 364.95
L 569.05 364.9
Q 565.3 366.2 561.55 367.5 560.35 367.85 559.2 368.35
M 475.6 372
Q 472.7 369.2 472.7 364.95 472.7 361.95 474.1 359.65 471.9 359.15 469.7 358.65
L 444.9 355.75 450.85 369.3
Q 468.6 392.1 502.9 377.3
L 502.95 377.25
Q 503.3 377.05 503.55 376.9 507.25 373.9 508 372.9 508.6 372.2 508.9 371.9 508.95 371.75 509.05 371.7 509.05 371.65 509.1 371.6 509.2 371.55 509.35 371.5 509.55 371.35 509.7 371.15 507.4 370.3 505.05 369.45 504.15 368.9 503.2 368.35 502 367.85 500.8 367.5 496.75 366 492.65 364.75 492.65 364.85 492.65 364.95 492.65 369.2 489.7 372 486.8 375 482.65 375 478.55 375 475.6 372 Z"/>

<path fill="#3399FF" stroke="none" d="
M 472.7 364.95
Q 472.7 369.2 475.6 372 478.55 375 482.65 375 486.8 375 489.7 372 492.65 369.2 492.65 364.95 492.65 364.85 492.65 364.75 492.05 364.55 491.45 364.4 490.1 363.9 488.9 363.65 477.5 360.5 476.55 360.3 475.4 359.9 474.1 359.65 472.7 361.95 472.7 364.95 Z"/>
</g>

<path id="Layer8_0_1_STROKES" stroke="#000000" stroke-opacity="0.2" stroke-width="8" stroke-linejoin="round" stroke-linecap="round" fill="none" d="
M 903.9 758.65
Q 913.4 796.45 906.3 833.15
M 157.1 761.15
Q 147.6 799 154.7 835.55
M 528.8 754.05
L 528.8 884.6"/>

<path id="Layer3_0_1_STROKES" stroke="#000000" stroke-opacity="0.2" stroke-width="6" stroke-linejoin="round" stroke-linecap="round" fill="none" d="
M 653.8 761.65
Q 653.8 761.9 653.8 762.25 653.8 767.7 657.6 771.55 661.45 775.4 666.9 775.4 667.45 775.4 668.05 775.35 672.7 774.95 676.15 771.55 679.9 767.75 680 762.4
L 680 762.25
Q 680 761.9 680 761.65 679.85 761.65 679.75 761.65 674.35 761.65 670.45 757.75 666.65 754 666.65 748.5 666.65 748.15 666.75 747.9
M 668.05 775.35
Q 668.05 775.65 668.05 775.95 668.05 781.35 671.85 785.25 675.7 789.05 681.15 789.05 686.6 789.05 690.4 785.25 694.25 781.35 694.25 775.95 694.25 775.65 694.25 775.35 693.7 775.4 693.1 775.4 687.65 775.4 683.8 771.55 680.1 767.75 680 762.4
M 706.2 761.65
Q 706.2 761.9 706.2 762.25 706.2 767.7 702.35 771.55 698.95 774.95 694.25 775.35
M 692.9 747.9
Q 692.9 748.15 692.9 748.5 692.9 754 689 757.75 685.3 761.6 680 761.65
M 859.35 625.6
Q 859.35 625.85 859.35 626.25 859.35 631.7 855.5 635.5 851.7 639.35 846.45 639.4 846.45 639.65 846.45 639.95
L 846.45 640.1
Q 846.5 645.5 850.25 649.25 854.15 653.1 859.55 653.1 860.2 653.1 860.7 653.05 865.4 652.75 868.8 649.25 872.7 645.45 872.7 639.95 872.7 639.65 872.7 639.4
M 860.7 653.05
Q 860.7 653.35 860.7 653.7 860.7 659.15 856.8 663 853.05 666.8 847.6 666.8 842.15 666.8 838.3 663 834.5 659.15 834.5 653.7 834.5 653.35 834.5 653.05 833.95 653.1 833.3 653.1 827.9 653.1 824 649.25 820.25 645.45 820.25 639.95 820.25 639.65 820.25 639.4
M 846.45 639.4
Q 846.35 639.4 846.25 639.4 840.8 639.4 836.95 635.5 833.1 631.7 833.1 626.25 833.1 625.85 833.15 625.6
M 846.45 640.1
Q 846.4 645.5 842.55 649.25 839.15 652.75 834.5 653.05
M 981.5 776.15
Q 981.5 776.45 981.5 776.75 981.5 782.2 977.6 786.05 975.3 788.35 972.45 789.3 971.05 789.75 969.55 789.85 969.55 790.15 969.55 790.45 969.55 795.95 965.7 799.75 961.85 803.6 956.45 803.6 950.95 803.6 947.15 799.75 943.3 795.95 943.3 790.45 943.3 790.15 943.3 789.85 942.75 789.9 942.15 789.9 936.7 789.9 932.9 786.05 929.05 782.2 929.05 776.75 929.05 776.45 929.05 776.15
M 968.15 762.4
Q 968.15 762.65 968.15 763.1 968.15 768.5 964.3 772.35 960.55 776.1 955.3 776.15 955.3 776.45 955.3 776.75
L 955.3 776.95
Q 955.35 782.25 959.05 786.05 962.95 789.9 968.35 789.9 969 789.9 969.55 789.85
M 955.3 776.15
Q 955.15 776.15 955.05 776.15 949.6 776.15 945.75 772.35 941.95 768.5 941.95 763.1 941.95 762.65 942 762.4
M 955.3 776.95
Q 955.25 782.25 951.4 786.05 947.95 789.5 943.3 789.85
M 238 701.85
Q 238 702.1 238 702.5 238 707.95 234.15 711.75 230.4 715.55 225.1 715.6 225.1 715.85 225.1 716.2
L 225.1 716.4
Q 225.15 721.7 228.95 725.5 232.75 729.35 238.25 729.35 238.8 729.35 239.4 729.3 244.05 728.95 247.5 725.5 251.3 721.65 251.3 716.2 251.3 715.85 251.3 715.6
M 225.1 715.6
Q 225 715.6 224.9 715.6 219.45 715.6 215.55 711.75 211.8 707.95 211.8 702.5 211.8 702.1 211.85 701.85
M 239.4 729.3
Q 239.4 729.6 239.4 729.9 239.4 735.35 235.5 739.2 231.7 743.05 226.25 743.05 220.85 743.05 216.95 739.2 213.15 735.35 213.15 729.9 213.15 729.6 213.15 729.3 212.6 729.35 212 729.35 206.55 729.35 202.7 725.5 198.85 721.65 198.85 716.2 198.85 715.85 198.85 715.6
M 213.15 729.3
Q 217.85 728.95 221.25 725.5 225.05 721.7 225.1 716.4
M 407.8 579.5
Q 407.8 579.8 407.8 580.15 407.8 585.55 404 589.45 400.5 592.85 395.85 593.15 395.85 593.5 395.85 593.85 395.85 599.25 392 603.15 388.15 606.95 382.75 606.95 377.3 606.95 373.45 603.15 369.65 599.25 369.65 593.85 369.65 593.5 369.65 593.15 369.1 593.25 368.5 593.25 363.05 593.25 359.2 589.45 355.35 585.55 355.35 580.15 355.35 579.8 355.35 579.5
M 394.5 565.75
Q 394.5 566.05 394.5 566.4 394.5 571.85 390.65 575.65 386.9 579.45 381.6 579.5 381.6 579.8 381.6 580.15
L 381.6 580.3
Q 381.65 585.6 385.45 589.45 389.25 593.25 394.75 593.25 395.3 593.25 395.85 593.15
M 381.6 579.5
Q 381.5 579.5 381.4 579.5 375.95 579.5 372.05 575.65 368.3 571.85 368.3 566.4 368.3 566.05 368.35 565.75
M 369.65 593.15
Q 374.35 592.85 377.75 589.45 381.55 585.6 381.6 580.3"/>

<path id="Layer0_0_1_STROKES" stroke="#000000" stroke-opacity="0.2" stroke-width="7.85" stroke-linejoin="round" stroke-linecap="round" fill="none" d="
M 549.85 415.6
L 549.85 423.85 533.15 433.45 516.5 423.8 516.5 415.6"/>

<path id="Layer0_0_2_STROKES" stroke="#000000" stroke-opacity="0.2" stroke-width="8" stroke-linejoin="round" stroke-linecap="round" fill="none" d="
M 562.2 481.25
L 504.1 481.5
M 578.25 457.95
L 487.95 457.95"/>
</defs>

<g transform="matrix( 1, 0, 0, 1, 0,0) ">
<use xlink:href="#Layer10_0_FILL"/>
</g>

<g transform="matrix( 1, 0, 0, 1, 0,0) ">
<use xlink:href="#Layer8_0_FILL"/>

<use xlink:href="#Layer8_0_1_STROKES"/>
</g>

<g transform="matrix( 1, 0, 0, 1, 0,0) ">
<use xlink:href="#Layer6_0_FILL"/>
</g>

<g transform="matrix( 1, 0, 0, 1, 0,0) ">
<use xlink:href="#Layer5_0_FILL"/>
</g>

<g transform="matrix( 1, 0, 0, 1, 0,0) ">
<use xlink:href="#Layer4_0_FILL"/>
</g>

<g transform="matrix( 1, 0, 0, 1, 0,0) ">
<use xlink:href="#Layer3_0_1_STROKES"/>
</g>

<g transform="matrix( 1, 0, 0, 1, 0,0) ">
<use xlink:href="#Layer1_0_FILL"/>
</g>

<g transform="matrix( 1, 0, 0, 1, 0,0) ">
<use xlink:href="#Layer0_0_1_STROKES"/>

<use xlink:href="#Layer0_0_2_STROKES"/>
</g>
</svg>
