
<svg xmlns="http://www.w3.org/2000/svg" version="1.1" xmlns:xlink="http://www.w3.org/1999/xlink" preserveAspectRatio="none" x="0px" y="0px" width="1280px" height="1024px" viewBox="0 0 1280 1024">
<defs>
<g id="Layer10_0_FILL">
<path fill="#CCCCCC" stroke="none" d="
M 639 982.25
L 639.75 982.3
Q 639.9 982.3 640 982.3 640.7 982.3 641.35 982.3
L 641.35 981.95 851.05 960.15
Q 906.85 921.35 949.1 869.15 842.9 881.05 740.2 878.95 694.25 836.65 639 797.6
L 639 982.25 Z"/>

<path fill="#FFFFFF" stroke="none" d="
M 639 797.6
Q 637.9 796.75 636.8 796 580.9 835.45 534.5 878.15 431.75 880.2 325.55 868.3 368.1 920.9 424.35 959.8
L 636.85 981.95 636.85 982.3
Q 637.55 982.3 638.2 982.3 638.35 982.3 638.45 982.3
L 639 982.25 639 797.6 Z"/>

<path fill="#194060" stroke="none" d="
M 756.05 604.45
L 743.45 498.9 572.55 613.75 639 680.2 639 797.6
Q 694.25 836.65 740.2 878.95 842.9 881.05 949.1 869.15 906.85 921.35 851.05 960.15
L 853.85 959.8
Q 892.45 952.6 931 942.4 986.15 927.9 1041.65 908.05 1050.95 904.75 1060.25 901.35 1110.45 882.6 1160.8 859.6 1145.7 770.85 1110.95 735.85 1072.1 696.7 998.8 692.15 868.95 606.35 756.05 604.45 Z"/>

<path fill="#25608F" stroke="none" d="
M 741.9 486.1
L 743.2 486.1 742.3 479.25 638.2 480.15 535.9 479.25 535.05 486.1 536.25 486.1 522.15 604.45
Q 409.25 606.35 279.4 692.15 206.15 696.7 167.3 735.85 132.5 770.85 117.4 859.6 167.75 882.6 217.95 901.35 227.25 904.75 236.5 908.05 292.05 927.9 347.2 942.4 385.75 952.6 424.35 959.8 368.1 920.9 325.55 868.3 431.75 880.2 534.5 878.15 580.9 835.45 636.8 796 637.9 796.75 639 797.6
L 639 680.2 572.55 613.75 743.45 498.9 741.9 486.1 Z"/>
</g>

<g id="Layer8_0_FILL">
<path fill="#000000" fill-opacity="0.2" stroke="none" d="
M 582.1 656.1
Q 581.8 654.25 580.25 653.15 578.8 652.05 576.95 652.35 575.05 652.7 574 654.25 572.95 655.65 573.25 657.6 584.25 722.6 622.65 769.35 623.85 770.8 625.7 771 627.55 771.2 629 770 630.35 768.8 630.65 766.95 630.8 765.05 629.6 763.65 592.75 718.6 582.1 656.1
M 380.7 711
Q 380.55 712.8 381.8 714.3 383 715.7 384.8 715.9 456.3 722.85 541.3 755.8 543 756.4 544.7 755.7 546.4 754.9 547.1 753.2 547.8 751.4 547 749.75 546.25 748.1 544.6 747.45 458.2 713.9 385.65 706.9 383.8 706.7 382.35 707.95 380.95 709.2 380.7 711
M 732.85 753.45
Q 732.1 755.2 732.75 756.95 733.4 758.65 735.1 759.4 736.8 760.15 738.55 759.5 823.5 726.55 895.05 719.65 896.85 719.45 898 718 899.25 716.55 899.1 714.75 898.85 712.85 897.4 711.7 896 710.5 894.2 710.65 821.6 717.6 735.3 751.15 733.45 751.75 732.85 753.45
M 705.55 657.6
Q 705.9 655.65 704.75 654.25 703.7 652.7 701.9 652.35 700.1 652.05 698.55 653.15 697.05 654.25 696.7 656.1 686.1 718.6 649.2 763.65 648.05 765.05 648.2 766.95 648.45 768.8 649.9 770 651.25 771.2 653.2 771 655 770.8 656.25 769.35 694.5 722.6 705.55 657.6 Z"/>
</g>

<g id="Layer6_0_FILL">
<path fill="#CCCCCC" stroke="none" d="
M 517.9 327.85
Q 510.7 311.85 496.8 301.65 495.55 321.7 504.6 336.5 499.45 329.25 488.05 332.85 493.3 344.1 501.4 349.55 496.65 348.95 490.6 352.75 498 361.95 510.7 360.3
L 520.9 387.65 526.5 382.35
Q 517.55 361.7 517.9 327.85 Z"/>

<path fill="#B2B2B2" stroke="none" d="
M 772.6 336.5
Q 781.65 321.65 780.45 301.65 766.5 311.8 759.25 327.8 759.65 361.65 750.75 382.3
L 756.25 387.65 766.5 360.2
Q 779.25 361.9 786.7 352.7 780.65 348.95 775.85 349.5 783.9 344.05 789.15 332.8 777.75 329.2 772.6 336.5 Z"/>
</g>

<g id="Layer5_0_FILL">
<path fill="#F2C2A9" stroke="none" d="
M 520.6 417.9
L 519.05 396.55
Q 495.7 379.3 493.9 421.15 492.15 463.1 515.35 489.8 524.35 500.15 525.9 487.7
L 525.05 476.65
Q 514.3 470.3 510.35 448.65 503.15 409.9 520.6 417.9
M 519.75 430.55
Q 516.45 433.7 515.8 439.45 515.3 445.45 517.75 450.4 519.95 454.9 523.5 456.6
L 521.5 429.4
Q 520.55 429.85 519.75 430.55 Z"/>

<path fill="#C77C66" stroke="none" d="
M 521.5 429.4
L 520.6 417.9
Q 503.15 409.9 510.35 448.65 514.3 470.3 525.05 476.65
L 523.5 456.6
Q 519.95 454.9 517.75 450.4 515.3 445.45 515.8 439.45 516.45 433.7 519.75 430.55 520.55 429.85 521.5 429.4
M 757 417.65
L 756.1 429.15
Q 757.1 429.6 757.9 430.35 761.15 433.5 761.8 439.25 762.3 445.2 759.8 450.15 757.65 454.7 754.1 456.35
L 752.55 476.45
Q 763.35 470.1 767.25 448.4 774.45 409.7 757 417.65 Z"/>

<path fill="#E8A994" stroke="none" d="
M 758.65 396.3
L 757 417.65
Q 774.45 409.7 767.25 448.4 763.35 470.1 752.55 476.45
L 751.7 487.45
Q 753.35 499.95 762.25 489.55 785.5 462.9 783.7 420.95 781.95 379.05 758.65 396.3
M 761.8 439.25
Q 761.15 433.5 757.9 430.35 757.1 429.6 756.1 429.15
L 754.1 456.35
Q 757.65 454.7 759.8 450.15 762.3 445.2 761.8 439.25 Z"/>
</g>

<g id="Layer4_0_FILL">
<path fill="#F2C2A9" stroke="none" d="
M 639 463.5
Q 638.4 463.7 637.9 463.85 589.85 477.65 561.7 511.35 551.8 554.95 557.2 598.45
L 557.2 598.5
Q 559.7 601.2 562.35 603.9 566.7 608.3 571.35 612.5 573.7 614.7 576.3 616.85 585.5 625.25 598.65 630 602.5 631.45 606.7 632.55 614.35 634.15 621.85 635.1 622.5 635.2 623 635.25
L 639.2 635.25 639.2 463.55
Q 639.1 463.55 639 463.5 Z"/>

<path fill="#33618F" stroke="none" d="
M 615.55 319.5
Q 615.1 321 614.75 322.55 612.65 331.1 610.8 339.85
L 637.9 339.85 637.9 319.5 615.55 319.5
M 637.9 282.05
L 637.9 253.1
Q 505.05 248.95 520.6 438.15
L 531.85 545.85
Q 534.85 570.85 541.55 579.6 548.8 589.45 557.2 598.45 551.8 554.95 561.7 511.35 589.85 477.65 637.9 463.85
L 637.9 370.3 605.2 370.3
Q 604.9 371.85 604.65 373.3 601.8 392.35 600.2 411.5 596.2 411 592.2 410.5 570.45 407.6 548.45 402.05
L 584.95 289
Q 611.95 281.55 637.9 282.05 Z"/>

<path fill="#FFFFFF" stroke="none" d="
M 637.9 282.05
Q 611.95 281.55 584.95 289
L 548.45 402.05
Q 570.45 407.6 592.2 410.5 596.2 411 600.2 411.5 601.8 392.35 604.65 373.3 604.9 371.85 605.2 370.3
L 637.9 370.3 637.9 339.85 610.8 339.85
Q 612.65 331.1 614.75 322.55 615.1 321 615.55 319.5
L 637.9 319.5 637.9 282.05 Z"/>

<path fill="#E8A994" stroke="none" d="
M 720.75 598.5
L 720.75 598.45
Q 726.15 554.95 716.2 511.35 687.85 477.35 639.2 463.55
L 639.2 635.25 654.9 635.25
Q 655.45 635.2 656 635.1 663.6 634.15 671.2 632.55 675.4 631.45 679.25 630 692.45 625.25 701.65 616.85 704.25 614.7 706.6 612.5 711.2 608.3 715.6 603.9 718.2 601.2 720.75 598.5 Z"/>

<path fill="#204060" stroke="none" d="
M 671.05 373.3
Q 670.85 371.85 670.6 370.3
L 637.9 370.3 637.9 463.85
Q 638.4 463.7 639 463.5 639.1 463.55 639.2 463.55 687.85 477.35 716.2 511.35 726.15 554.95 720.75 598.45 729.15 589.45 736.4 579.6 743.1 570.85 746 545.85
L 757.3 438.15
Q 772.95 248.15 639 253.15 638.4 253.1 637.9 253.1
L 637.9 282.05
Q 663.75 281.55 690.8 289
L 727.25 402.05
Q 705.3 407.6 683.5 410.5 679.55 411 675.6 411.5 673.95 392.35 671.05 373.3
M 661 322.55
Q 660.6 321 660.2 319.5
L 637.9 319.5 637.9 339.85 664.9 339.85
Q 663.1 331.1 661 322.55 Z"/>

<path fill="#CCCCCC" stroke="none" d="
M 660.2 319.5
Q 660.6 321 661 322.55 663.1 331.1 664.9 339.85
L 637.9 339.85 637.9 370.3 670.6 370.3
Q 670.85 371.85 671.05 373.3 673.95 392.35 675.6 411.5 679.55 411 683.5 410.5 705.3 407.6 727.25 402.05
L 690.8 289
Q 663.75 281.55 637.9 282.05
L 637.9 319.5 660.2 319.5 Z"/>
</g>

<g id="Layer1_0_FILL">
<path fill="#3399FF" stroke="none" d="
M 596.9 439.65
Q 585.5 436.5 584.55 436.3 583.4 435.9 582.1 435.65 580.7 437.95 580.7 440.95 580.7 445.2 583.6 448 586.55 451 590.65 451 594.8 451 597.7 448 600.65 445.2 600.65 440.95 600.65 440.85 600.65 440.75 600.05 440.55 599.45 440.4 598.1 439.9 596.9 439.65 Z"/>

<path fill="#FFFFFF" stroke="none" d="
M 613.05 445.45
Q 612.15 444.9 611.2 444.35 610 443.85 608.8 443.5 604.75 442 600.65 440.75 600.65 440.85 600.65 440.95 600.65 445.2 597.7 448 594.8 451 590.65 451 586.55 451 583.6 448 580.7 445.2 580.7 440.95 580.7 437.95 582.1 435.65 579.9 435.15 577.7 434.65
L 552.9 431.75 558.85 445.3
Q 576.6 468.1 610.9 453.3
L 610.95 453.25
Q 611.3 453.05 611.55 452.9 615.25 449.9 616 448.9 616.6 448.2 616.9 447.9 616.95 447.75 617.05 447.7 617.05 447.65 617.1 447.6 617.2 447.55 617.35 447.5 617.55 447.35 617.7 447.15 615.4 446.3 613.05 445.45
M 697.05 440.75
Q 697.05 440.85 697.05 440.95 697.05 445.2 694.1 448 691.2 451 687.1 451 682.9 451 679.95 448 677.05 445.2 677.05 440.95
L 677.05 440.9
Q 673.3 442.2 669.55 443.5 668.35 443.85 667.2 444.35 666.2 444.9 665.3 445.45 662.95 446.3 660.65 447.15 660.9 447.35 661.05 447.5 661.15 447.55 661.25 447.6 661.3 447.65 661.3 447.7 661.4 447.75 661.45 447.9 661.75 448.2 662.35 448.9 663.1 449.9 666.75 452.9 667.1 453.05 667.4 453.25
L 667.45 453.3
Q 701.75 468.1 719.4 445.3
L 725.4 431.75 700.65 434.65
Q 698.15 435.2 695.6 435.8 696.95 437.95 697.05 440.75 Z"/>

<path fill="#5A99FF" stroke="none" d="
M 695.6 435.8
Q 694.65 436.05 693.75 436.3 692.9 436.5 681.4 439.65 680.25 439.9 678.9 440.4 678.05 440.65 677.05 440.9
L 677.05 440.95
Q 677.05 445.2 679.95 448 682.9 451 687.1 451 691.2 451 694.1 448 697.05 445.2 697.05 440.95 697.05 440.85 697.05 440.75 696.95 437.95 695.6 435.8 Z"/>
</g>

<path id="Layer8_0_1_STROKES" stroke="#000000" stroke-opacity="0.2" stroke-width="8" stroke-linejoin="round" stroke-linecap="round" fill="none" d="
M 636.8 830.05
L 636.8 960.6
M 265.1 837.15
Q 255.6 875 262.7 911.55
M 1011.9 834.65
Q 1021.4 872.45 1014.3 909.15"/>

<path id="Layer3_0_1_STROKES" stroke="#000000" stroke-opacity="0.2" stroke-width="6" stroke-linejoin="round" stroke-linecap="round" fill="none" d="
M 967.35 701.6
Q 967.35 701.85 967.35 702.25 967.35 707.7 963.5 711.5 959.7 715.35 954.45 715.4 954.45 715.65 954.45 715.95
L 954.45 716.1
Q 954.5 721.5 958.25 725.25 962.15 729.1 967.55 729.1 968.2 729.1 968.7 729.05 973.4 728.75 976.8 725.25 980.7 721.45 980.7 715.95 980.7 715.65 980.7 715.4
M 954.45 715.4
Q 954.35 715.4 954.25 715.4 948.8 715.4 944.95 711.5 941.1 707.7 941.1 702.25 941.1 701.85 941.15 701.6
M 968.7 729.05
Q 968.7 729.35 968.7 729.7 968.7 735.15 964.8 739 961.05 742.8 955.6 742.8 950.15 742.8 946.3 739 942.5 735.15 942.5 729.7 942.5 729.35 942.5 729.05 941.95 729.1 941.3 729.1 935.9 729.1 932 725.25 928.25 721.45 928.25 715.95 928.25 715.65 928.25 715.4
M 954.45 716.1
Q 954.4 721.5 950.55 725.25 947.15 728.75 942.5 729.05
M 306.85 791.6
Q 306.85 791.85 306.85 792.2 306.85 797.65 310.7 801.5 314.55 805.35 320 805.35 320.6 805.35 321.15 805.3 325.85 804.95 329.25 801.5 333.05 797.7 333.1 792.4
L 333.1 792.2
Q 333.1 791.85 333.1 791.6 333 791.6 332.9 791.6 327.45 791.6 323.55 787.75 319.8 783.95 319.8 778.5 319.8 778.1 319.85 777.85
M 463.35 655.5
Q 463.35 655.8 463.35 656.15 463.35 661.55 467.2 665.45 471.05 669.25 476.5 669.25 477.1 669.25 477.65 669.15 482.35 668.85 485.75 665.45 489.55 661.6 489.6 656.3
L 489.6 656.15
Q 489.6 655.8 489.6 655.5 489.5 655.5 489.4 655.5 483.95 655.5 480.05 651.65 476.3 647.85 476.3 642.4 476.3 642.05 476.35 641.75
M 515.8 655.5
Q 515.8 655.8 515.8 656.15 515.8 661.55 512 665.45 508.5 668.85 503.85 669.15 503.85 669.5 503.85 669.85 503.85 675.25 500 679.15 496.15 682.95 490.75 682.95 485.3 682.95 481.45 679.15 477.65 675.25 477.65 669.85 477.65 669.5 477.65 669.15
M 346 777.85
Q 346 778.1 346 778.5 346 783.95 342.15 787.75 338.4 791.55 333.1 791.6
M 502.5 641.75
Q 502.5 642.05 502.5 642.4 502.5 647.85 498.65 651.65 494.9 655.45 489.6 655.5
M 503.85 669.15
Q 503.3 669.25 502.75 669.25 497.25 669.25 493.45 665.45 489.65 661.6 489.6 656.3
M 359.3 791.6
Q 359.3 791.85 359.3 792.2 359.3 797.65 355.5 801.5 352.05 804.95 347.4 805.3 347.4 805.6 347.4 805.9 347.4 811.35 343.5 815.2 339.7 819.05 334.25 819.05 328.85 819.05 324.95 815.2 321.15 811.35 321.15 805.9 321.15 805.6 321.15 805.3
M 347.4 805.3
Q 346.8 805.35 346.25 805.35 340.75 805.35 336.95 801.5 333.15 797.7 333.1 792.4
M 1076.15 838.4
Q 1076.15 838.65 1076.15 839.1 1076.15 844.5 1072.3 848.35 1068.55 852.1 1063.3 852.15 1063.3 852.45 1063.3 852.75
L 1063.3 852.95
Q 1063.35 858.25 1067.05 862.05 1070.95 865.9 1076.35 865.9 1077 865.9 1077.55 865.85 1082.2 865.5 1085.6 862.05 1089.5 858.2 1089.5 852.75 1089.5 852.45 1089.5 852.15
M 1063.3 852.15
Q 1063.15 852.15 1063.05 852.15 1057.6 852.15 1053.75 848.35 1049.95 844.5 1049.95 839.1 1049.95 838.65 1050 838.4
M 1063.3 852.95
Q 1063.25 858.25 1059.4 862.05 1055.95 865.5 1051.3 865.85 1051.3 866.15 1051.3 866.45 1051.3 871.95 1055.15 875.75 1058.95 879.6 1064.45 879.6 1069.85 879.6 1073.7 875.75 1077.55 871.95 1077.55 866.45 1077.55 866.15 1077.55 865.85
M 1051.3 865.85
Q 1050.75 865.9 1050.15 865.9 1044.7 865.9 1040.9 862.05 1037.05 858.2 1037.05 852.75 1037.05 852.45 1037.05 852.15
M 814.2 837.65
Q 814.2 837.9 814.2 838.25 814.2 843.7 810.35 847.55 806.95 850.95 802.25 851.35 802.25 851.65 802.25 851.95 802.25 857.35 798.4 861.25 794.6 865.05 789.15 865.05 783.7 865.05 779.85 861.25 776.05 857.35 776.05 851.95 776.05 851.65 776.05 851.35 775.45 851.4 774.9 851.4 769.45 851.4 765.6 847.55 761.8 843.7 761.8 838.25 761.8 837.9 761.8 837.65
M 776.05 851.35
Q 780.7 850.95 784.15 847.55 787.9 843.75 788 838.4
L 788 838.25
Q 788 837.9 788 837.65 787.85 837.65 787.75 837.65 782.35 837.65 778.45 833.75 774.65 830 774.65 824.5 774.65 824.15 774.75 823.9
M 800.9 823.9
Q 800.9 824.15 800.9 824.5 800.9 830 797 833.75 793.3 837.6 788 837.65
M 802.25 851.35
Q 801.7 851.4 801.1 851.4 795.65 851.4 791.8 847.55 788.1 843.75 788 838.4"/>

<path id="Layer0_0_1_STROKES" stroke="#000000" stroke-opacity="0.2" stroke-width="7.85" stroke-linejoin="round" stroke-linecap="round" fill="none" d="
M 657.85 491.6
L 657.85 499.85 641.15 509.45 624.5 499.8 624.5 491.6"/>

<path id="Layer0_0_2_STROKES" stroke="#000000" stroke-opacity="0.2" stroke-width="8" stroke-linejoin="round" stroke-linecap="round" fill="none" d="
M 686.25 533.95
L 595.95 533.95
M 670.2 557.25
L 612.1 557.5"/>
</defs>

<g transform="matrix( 1, 0, 0, 1, 0,0) ">
<use xlink:href="#Layer10_0_FILL"/>
</g>

<g transform="matrix( 1, 0, 0, 1, 0,0) ">
<use xlink:href="#Layer8_0_FILL"/>

<use xlink:href="#Layer8_0_1_STROKES"/>
</g>

<g transform="matrix( 1, 0, 0, 1, 0,0) ">
<use xlink:href="#Layer6_0_FILL"/>
</g>

<g transform="matrix( 1, 0, 0, 1, 0,0) ">
<use xlink:href="#Layer5_0_FILL"/>
</g>

<g transform="matrix( 1, 0, 0, 1, 0,0) ">
<use xlink:href="#Layer4_0_FILL"/>
</g>

<g transform="matrix( 1, 0, 0, 1, 0,0) ">
<use xlink:href="#Layer3_0_1_STROKES"/>
</g>

<g transform="matrix( 1, 0, 0, 1, 0,0) ">
<use xlink:href="#Layer1_0_FILL"/>
</g>

<g transform="matrix( 1, 0, 0, 1, 0,0) ">
<use xlink:href="#Layer0_0_1_STROKES"/>

<use xlink:href="#Layer0_0_2_STROKES"/>
</g>
</svg>
