
<svg xmlns="http://www.w3.org/2000/svg" version="1.1" xmlns:xlink="http://www.w3.org/1999/xlink" preserveAspectRatio="none" x="0px" y="0px" width="1024px" height="1024px" viewBox="0 0 1024 1024">
<defs>
<g id="Layer12_0_FILL">
<path fill="#666666" stroke="none" d="
M 54.2 669.95
Q 20.45 703.9 5.8 790 54.65 812.3 103.35 830.5 112.35 833.8 121.35 837 175.2 856.25 228.7 870.3 266.1 880.2 303.55 887.2
L 509.7 908.7 509.7 909
Q 510.4 909 511 909 511.15 909 511.25 909
L 511.8 908.95 511.8 770.6
Q 510.1 770.6 508.4 770.6 457.05 770.35 405.95 763.6 391.55 761.7 377.25 759.3 370.45 758.55 363.4 757.6 360.4 756.65 357.45 755.75 242.05 718.85 162.95 627.55 131.35 629.5 106.45 638.1 75.15 648.85 54.2 669.95 Z"/>

<path fill="#3C3C3C" stroke="none" d="
M 674.75 752.75
Q 668.65 754.85 662.5 756.75
L 661.8 756.95
Q 667.75 751.1 651.3 758.7 635.9 761.35 620.55 763.35 565.95 770.55 511.8 770.6
L 511.8 908.95 512.5 909
Q 512.65 909 512.75 909 513.45 909 514.05 909
L 514.05 908.7 720.2 887.2
Q 757.65 880.2 795.05 870.3 848.55 856.25 902.4 837 911.4 833.8 920.45 830.5 969.15 812.3 1018 790 1003.35 703.9 969.6 669.95 948.35 648.5 916.4 637.8 891.75 629.5 860.85 627.55 860.6 627.4 860.4 627.25 860.2 627.4 860.05 627.6 784.1 715.25 674.75 752.75 Z"/>
</g>

<g id="Layer11_0_FILL">
<path fill="#D0BE5A" stroke="none" d="
M 517.9 783.15
Q 523.05 780.85 526.4 777.15
L 531.55 787.25
Q 538.6 797.15 549.1 796.25 559.35 795.4 572.45 786.9
L 583.5 778.55 597.85 789.7
Q 612.7 805 614.3 825.15 615.35 837.4 609.35 846.05 606.3 850.5 603.1 852.45 600.1 849.8 596.05 847.15 587.7 841.8 581.7 842.35 575.65 842.85 567.85 851 564 855.1 561.3 859.2 551.35 855.45 542.15 856.35 536.5 856.9 523.9 867.9 517.8 873.25 512.75 878.45
L 512.75 900.8
Q 590.1 900.5 645.1 879.15 700.75 857.5 700.75 826.85 700.75 796.25 645.1 774.6 590.1 753.25 512.75 753
L 512.75 784.95
Q 514.35 784.85 517.9 783.15 Z"/>

<path fill="#101010" stroke="none" d="
M 441.85 778.55
L 427.5 789.7
Q 412.6 805 411.05 825.15 410 837.4 416 846.05 418.8 850.5 422 852.45 425 849.8 429.3 847.15 437.65 841.8 443.65 842.35 449.45 842.85 457.25 851 461.35 855.1 464 859.2
L 470.05 857.4
Q 477.3 855.8 483 856.35 488.85 856.9 501.2 867.9 507.4 873.35 512.55 878.65 512.65 878.55 512.75 878.45 517.8 873.25 523.9 867.9 536.5 856.9 542.15 856.35 551.35 855.45 561.3 859.2 564 855.1 567.85 851 575.65 842.85 581.7 842.35 587.7 841.8 596.05 847.15 600.1 849.8 603.1 852.45 606.3 850.5 609.35 846.05 615.35 837.4 614.3 825.15 612.7 805 597.85 789.7
L 583.5 778.55 572.45 786.9
Q 559.35 795.4 549.1 796.25 538.6 797.15 531.55 787.25
L 526.4 777.15
Q 523.05 780.85 517.9 783.15 514.35 784.85 512.75 784.95 512.65 784.95 512.55 784.95 510.95 784.95 507.3 783.15 502.15 780.85 498.75 777.15
L 493.6 787.25
Q 486.5 797.15 476.25 796.25 465.8 795.4 452.85 786.9
L 441.85 778.55 Z"/>

<path fill="#F2DD69" stroke="none" d="
M 427.5 789.7
L 441.85 778.55 452.85 786.9
Q 465.8 795.4 476.25 796.25 486.5 797.15 493.6 787.25
L 498.75 777.15
Q 502.15 780.85 507.3 783.15 510.95 784.95 512.55 784.95 512.65 784.95 512.75 784.95
L 512.75 753
Q 511.75 753 510.65 753 431.9 753 376.2 774.6 320.55 796.25 320.55 826.85 320.55 857.5 376.2 879.15 431.9 900.8 510.65 900.8 511.75 900.8 512.75 900.8
L 512.75 878.45
Q 512.65 878.55 512.55 878.65 507.4 873.35 501.2 867.9 488.85 856.9 483 856.35 477.3 855.8 470.05 857.4
L 464 859.2
Q 461.35 855.1 457.25 851 449.45 842.85 443.65 842.35 437.65 841.8 429.3 847.15 425 849.8 422 852.45 418.8 850.5 416 846.05 410 837.4 411.05 825.15 412.6 805 427.5 789.7 Z"/>
</g>

<g id="Layer10_0_FILL">
<path fill="#202020" stroke="none" d="
M 511.7 259.05
L 512 201.55
Q 467.7 200.25 440.45 220.15
L 407 127.8 395.5 509.05
Q 392.45 537 367.25 546.2 330.55 551.85 291.7 564.3 247.9 578.3 212.4 597.65 149.95 530.6 106.45 638.1 131.35 629.5 162.95 627.55 242.05 718.85 357.45 755.75 360.4 756.65 363.4 757.6 370.45 758.55 377.25 759.3 391.55 761.7 405.95 763.6 457.05 770.35 508.4 770.6 510.1 770.6 511.8 770.6
L 511.8 615.95 447.35 551.5 447.4 551.45
Q 446.8 550.85 446.15 550.3 441.65 546.2 437.45 541.95 434.85 539.3 432.45 536.7
L 432.45 536.65
Q 429.7 515.2 430.9 488.35 432.05 460.9 436.25 429.5
L 512 444.9 511.7 259.05 Z"/>

<path fill="#120808" stroke="none" d="
M 732.3 564.3
Q 693.45 551.85 656.7 546.2 631.5 537 628.5 509.05
L 617.1 131.8 616.95 127.8 615.2 137 584.8 221.05
Q 557.3 200.2 512 201.55
L 511.7 259.05 512 444.9 436.25 429.5
Q 432.05 460.9 430.9 488.35 429.7 515.2 432.45 536.65
L 432.45 536.7
Q 434.85 539.3 437.45 541.95 441.65 546.2 446.15 550.3 446.8 550.85 447.4 551.45
L 447.35 551.5 511.8 615.95 511.8 770.6
Q 513.85 770.6 515.55 770.6 566.95 770.35 600.15 766.95 633.3 763.5 651.1 759.2 653.5 758.55 660.8 757.3 663.55 756.65 666.5 755.75 781.9 718.85 861 627.55 892.6 629.5 917.55 638.1 874 530.6 811.55 597.65 776.1 578.3 732.3 564.3 Z"/>
</g>

<g id="Symbole_15_0_Layer0_0_FILL">
<path fill="#F2C2A9" stroke="none" d="
M 5.9 0
Q 1.55 32.35 0.35 60.65 -0.85 88.35 1.95 110.45
L 1.95 110.5
Q 4.45 113.2 7.1 115.9 11.45 120.3 16.1 124.5 16.75 125.1 17.4 125.7 19.15 127.3 21.05 128.85 30.25 137.25 43.4 142 47.25 143.45 51.45 144.55 59.1 146.15 66.6 147.1 67.25 147.2 67.75 147.25
L 83.95 147.25 83.95 11.85 5.9 0 Z"/>

<path fill="#EAA993" stroke="none" d="
M 167.55 60.65
Q 166.35 32.35 162 0
L 83.95 11.85 83.95 147.25 100.15 147.25
Q 100.65 147.2 101.3 147.1 108.8 146.15 116.45 144.55 120.65 143.45 124.5 142 137.65 137.25 146.85 128.85 148.75 127.3 150.5 125.7 151.15 125.1 151.8 124.5 156.45 120.3 160.8 115.9 163.45 113.2 165.95 110.5
L 165.95 110.45
Q 168.75 88.35 167.55 60.65 Z"/>
</g>

<g id="Layer1_0_FILL">
<path fill="#FFFFFF" stroke="none" d="
M 541.25 391.35
Q 539.45 391.75 537.7 392.25 537.8 392.35 537.95 392.45 538.1 392.45 538.15 392.45 538.2 392.5 538.2 392.55 538.25 392.55 538.25 392.65 538.5 392.8 539 393.2 539.55 393.7 542.4 395.35 542.6 395.4 542.85 395.5
L 542.9 395.55
Q 569.1 403.6 582.7 391.25
L 587.25 383.9 568.3 385.45
Q 566.6 385.75 564.9 386 563.95 386.15 563.05 386.35 562.35 386.5 553.6 388.2 552.7 388.3 551.65 388.55 551.2 388.6 550.75 388.75 547.6 389.45 544.5 390.25 543.55 390.45 542.65 390.7 541.9 391 541.25 391.35
M 435.7 383.9
L 440.25 391.25
Q 453.85 403.6 480.05 395.55
L 480.1 395.5
Q 480.35 395.4 480.55 395.35 483.4 393.7 483.95 393.2 484.45 392.8 484.7 392.65 484.7 392.55 484.75 392.55 484.75 392.5 484.8 392.45 484.85 392.45 485 392.45 485.15 392.35 485.25 392.25 483.5 391.75 481.7 391.35 481.05 391 480.3 390.7 479.4 390.45 478.45 390.25 475.35 389.45 472.2 388.75 471.75 388.6 471.3 388.55 470.25 388.3 469.35 388.2 460.6 386.5 459.9 386.35 459 386.15 458.05 386 456.35 385.75 454.65 385.45
L 435.7 383.9 Z"/>
</g>

<path id="Layer9_0_1_STROKES" stroke="#000000" stroke-opacity="0.2" stroke-width="0.1" stroke-linejoin="round" stroke-linecap="round" fill="none" d="
M 917.8 641.3
Q 917.2 639.7 916.55 638.1 916.45 637.95 916.4 637.8
M 105.15 641.25
Q 105.8 639.65 106.45 638.1"/>

<path id="Layer9_0_2_STROKES" stroke="#000000" stroke-opacity="0.2" stroke-width="8" stroke-linejoin="round" stroke-linecap="round" fill="none" d="
M 803.15 604.35
Q 802.95 604.55 802.8 604.7 784.55 624.35 751.8 648
M 865.05 622.6
Q 869.5 617.4 873.85 612.15
M 158.3 622.9
Q 153.65 617.55 149.15 612.1
M 220.2 604.65
Q 238.45 624.3 271.2 647.95"/>

<path id="Layer8_0_1_STROKES" stroke="#000000" stroke-opacity="0.2" stroke-width="8" stroke-linejoin="round" stroke-linecap="round" fill="none" d="
M 873.55 765.8
Q 882.75 802.45 875.85 838.05
M 149.05 768.2
Q 139.85 804.95 146.75 840.4
M 512 778
L 512 904.65"/>

<path id="Layer0_0_1_STROKES" stroke="#000000" stroke-opacity="0.2" stroke-width="8" stroke-linejoin="round" stroke-linecap="round" fill="none" d="
M 542.05 496.7
L 485.7 496.95
M 557.65 474.1
L 470.05 474.1"/>
</defs>

<g transform="matrix( 1, 0, 0, 1, 0,0) ">
<use xlink:href="#Layer12_0_FILL"/>
</g>

<g transform="matrix( 1, 0, 0, 1, 0,0) ">
<use xlink:href="#Layer11_0_FILL"/>
</g>

<g transform="matrix( 1, 0, 0, 1, 0,0) ">
<use xlink:href="#Layer10_0_FILL"/>
</g>

<g transform="matrix( 0.9700927734375, 0, 0, 0.9700927734375, 430.55,429.5) ">
<g transform="matrix( 1, 0, 0, 1, 0,0) ">
<use xlink:href="#Symbole_15_0_Layer0_0_FILL"/>
</g>
</g>

<g transform="matrix( 1, 0, 0, 1, 0,0) ">
<use xlink:href="#Layer9_0_1_STROKES"/>

<use xlink:href="#Layer9_0_2_STROKES"/>
</g>

<g transform="matrix( 1, 0, 0, 1, 0,0) ">
<use xlink:href="#Layer8_0_1_STROKES"/>
</g>

<g transform="matrix( 1, 0, 0, 1, 0,0) ">
<use xlink:href="#Layer1_0_FILL"/>
</g>

<g transform="matrix( 1, 0, 0, 1, 0,0) ">
<use xlink:href="#Layer0_0_1_STROKES"/>
</g>
</svg>
